<svg width="143" height="23" viewBox="0 0 143 23" fill="none" xmlns="http://www.w3.org/2000/svg">
<path d="M-9.67085e-06 15.7199H4.28999C4.32999 16.6199 4.75999 17.2999 5.57999 17.7599C6.41999 18.2199 7.39999 18.4499 8.51999 18.4499C11.2 18.4499 12.54 17.5699 12.54 15.8099C12.54 15.3499 12.43 14.9499 12.21 14.6099C12.01 14.2699 11.78 14.0199 11.52 13.8599C11.26 13.6799 10.89 13.5299 10.41 13.4099C9.92999 13.2899 9.52999 13.2099 9.20999 13.1699C8.90999 13.1299 8.48999 13.0899 7.94999 13.0499C2.84999 12.6099 0.29999 10.6199 0.29999 7.07993C0.29999 4.89993 1.05999 3.25993 2.57999 2.15993C4.09999 1.03993 5.99999 0.479931 8.27999 0.479931C9.31999 0.479931 10.29 0.599931 11.19 0.839931C12.11 1.05993 12.96 1.40993 13.74 1.88993C14.52 2.36993 15.14 3.03993 15.6 3.89993C16.06 4.73993 16.29 5.71993 16.29 6.83993H12.09C11.97 6.03993 11.55 5.43993 10.83 5.03993C10.11 4.61993 9.25999 4.40993 8.27999 4.40993C7.31999 4.40993 6.47999 4.64993 5.75999 5.12993C5.05999 5.58993 4.70999 6.20993 4.70999 6.98993C4.70999 7.82993 5.04999 8.42993 5.72999 8.78993C6.42999 9.12993 7.42999 9.36993 8.72999 9.50993C9.98999 9.62993 11.05 9.78993 11.91 9.98993C12.79 10.1899 13.64 10.5099 14.46 10.9499C15.3 11.3899 15.93 12.0199 16.35 12.8399C16.77 13.6399 16.98 14.6299 16.98 15.8099C16.98 16.9899 16.74 18.0199 16.26 18.8999C15.78 19.7799 15.12 20.4599 14.28 20.9399C13.46 21.4199 12.57 21.7699 11.61 21.9899C10.67 22.2299 9.64999 22.3599 8.54999 22.3799C6.22999 22.3799 4.21999 21.8099 2.51999 20.6699C0.83999 19.5099 -9.67085e-06 17.8599 -9.67085e-06 15.7199ZM34.638 21.9299H30.408V13.5599C30.448 12.6199 30.198 11.8699 29.658 11.3099C29.138 10.7499 28.478 10.4699 27.678 10.4699C26.838 10.4699 26.118 10.7599 25.518 11.3399C24.918 11.8999 24.618 12.6699 24.618 13.6499V21.9299H20.418V11.9399C20.418 11.4999 20.408 11.1899 20.388 11.0099C20.388 10.8299 20.338 10.6499 20.238 10.4699C20.158 10.2899 20.018 10.1799 19.818 10.1399C19.638 10.0799 19.378 10.0499 19.038 10.0499V7.43993C22.558 6.83993 24.318 7.48993 24.318 9.38993C24.698 8.60993 25.318 8.03993 26.178 7.67993C27.058 7.31993 27.978 7.13993 28.938 7.13993C30.878 7.13993 32.308 7.72993 33.228 8.90993C34.168 10.0899 34.638 11.6399 34.638 13.5599V21.9299ZM45.0858 7.10993C47.6658 7.10993 49.5158 7.88993 50.6358 9.44993C51.7758 11.0099 52.0658 13.0499 51.5058 15.5699H41.6958C41.8358 17.5699 43.1158 18.6599 45.5358 18.8399C46.3758 18.8799 47.0158 18.8699 47.4558 18.8099C48.8158 18.6499 49.9658 18.3599 50.9058 17.9399L51.3858 20.9999C49.5658 21.8599 47.6958 22.2899 45.7758 22.2899C43.3158 22.3299 41.3158 21.6499 39.7758 20.2499C38.2558 18.8499 37.4958 16.9399 37.4958 14.5199C37.5358 12.1399 38.2858 10.3099 39.7458 9.02993C41.2258 7.74993 43.0058 7.10993 45.0858 7.10993ZM45.0858 10.3199C44.2458 10.3199 43.5158 10.5499 42.8958 11.0099C42.2758 11.4499 41.8858 12.0699 41.7258 12.8699H48.0858C48.1258 11.9899 47.8558 11.3499 47.2758 10.9499C46.6958 10.5299 45.9658 10.3199 45.0858 10.3199ZM64.1299 19.7099C63.7299 20.5499 63.0499 21.1799 62.0899 21.5999C61.1499 21.9999 60.1599 22.1999 59.1199 22.1999C57.7199 22.1999 56.4999 21.7899 55.4599 20.9699C54.4399 20.1299 53.9099 19.0299 53.8699 17.6699C53.7899 15.9699 54.2799 14.6799 55.3399 13.7999C56.3999 12.8999 57.7799 12.4499 59.4799 12.4499C61.0599 12.4499 62.3399 12.7599 63.3199 13.3799V12.3899C63.3199 11.0099 62.1199 10.3199 59.7199 10.3199C57.9799 10.3199 56.5899 10.6099 55.5499 11.1899L55.0099 8.18993C56.5299 7.46993 58.3399 7.10993 60.4399 7.10993C65.0399 7.10993 67.3399 8.90993 67.3399 12.5099V17.7299C67.3399 18.1299 67.3399 18.4099 67.3399 18.5699C67.3599 18.7299 67.4099 18.9199 67.4899 19.1399C67.5699 19.3399 67.6999 19.4699 67.8799 19.5299C68.0799 19.5899 68.3499 19.6099 68.6899 19.5899L68.7199 21.9299C67.9599 22.0699 67.2399 22.1399 66.5599 22.1399C65.8799 22.1399 65.2999 21.9399 64.8199 21.5399C64.3599 21.1199 64.1299 20.5099 64.1299 19.7099ZM63.2299 16.7399V15.9899C62.4099 15.4299 61.4099 15.1499 60.2299 15.1499C59.5299 15.1899 58.9599 15.4099 58.5199 15.8099C58.0799 16.1899 57.8999 16.7199 57.9799 17.3999C58.0199 17.8999 58.2299 18.2899 58.6099 18.5699C58.9899 18.8299 59.4399 18.9599 59.9599 18.9599C60.7399 18.9599 61.4599 18.7699 62.1199 18.3899C62.7999 17.9899 63.1699 17.4399 63.2299 16.7399ZM75.6412 12.7799H76.6612C78.2012 12.7799 79.2812 12.3099 79.9012 11.3699C80.5212 10.4099 80.8312 9.09993 80.8312 7.43993H84.7912C84.8312 9.11993 84.6012 10.5599 84.1012 11.7599C83.6012 12.9399 82.6812 13.8799 81.3412 14.5799L85.4812 21.4799V21.8999H81.2512L77.8012 15.8999C77.4412 16.0199 77.0412 16.0799 76.6012 16.0799H75.6412V21.8999H71.4712V-6.85453e-05H75.6412V12.7799ZM98.5547 10.8599L106.985 0.869931H108.605V21.9299H104.105V10.5599L98.8247 17.1599H98.2547L92.9747 10.5599V21.9299H88.4747V0.869931H90.1247L98.5547 10.8599ZM122.021 19.7099C121.621 20.5499 120.941 21.1799 119.981 21.5999C119.041 21.9999 118.051 22.1999 117.011 22.1999C115.611 22.1999 114.391 21.7899 113.351 20.9699C112.331 20.1299 111.801 19.0299 111.761 17.6699C111.681 15.9699 112.171 14.6799 113.231 13.7999C114.291 12.8999 115.671 12.4499 117.371 12.4499C118.951 12.4499 120.231 12.7599 121.211 13.3799V12.3899C121.211 11.0099 120.011 10.3199 117.611 10.3199C115.871 10.3199 114.481 10.6099 113.441 11.1899L112.901 8.18993C114.421 7.46993 116.231 7.10993 118.331 7.10993C122.931 7.10993 125.231 8.90993 125.231 12.5099V17.7299C125.231 18.1299 125.231 18.4099 125.231 18.5699C125.251 18.7299 125.301 18.9199 125.381 19.1399C125.461 19.3399 125.591 19.4699 125.771 19.5299C125.971 19.5899 126.241 19.6099 126.581 19.5899L126.611 21.9299C125.851 22.0699 125.131 22.1399 124.451 22.1399C123.771 22.1399 123.191 21.9399 122.711 21.5399C122.251 21.1199 122.021 20.5099 122.021 19.7099ZM121.121 16.7399V15.9899C120.301 15.4299 119.301 15.1499 118.121 15.1499C117.421 15.1899 116.851 15.4099 116.411 15.8099C115.971 16.1899 115.791 16.7199 115.871 17.3999C115.911 17.8999 116.121 18.2899 116.501 18.5699C116.881 18.8299 117.331 18.9599 117.851 18.9599C118.631 18.9599 119.351 18.7699 120.011 18.3899C120.691 17.9899 121.061 17.4399 121.121 16.7399ZM135.392 16.8299H135.302L133.592 19.7099L132.032 21.9299H127.832V21.4499L132.842 14.2499L128.552 7.91993V7.46993H132.572L133.862 9.35993L135.242 11.7899H135.332L136.682 9.32993L137.942 7.46993H142.232V7.94993L137.792 14.3999L142.682 21.4499V21.9299H138.632L137.012 19.5899L135.392 16.8299Z" fill="white"/>
</svg>
